<svg width="50" height="50" viewBox="0 0 50 50" fill="none" xmlns="http://www.w3.org/2000/svg">
<path d="M25 50C11.195 50 0 38.805 0 25C0 11.195 11.195 0 25 0C38.805 0 50 11.195 50 25C50 38.805 38.805 50 25 50Z" fill="url(#paint0_linear)"/>
<path d="M24.9999 11.0101C29.5549 11.0101 30.0949 11.0251 31.8949 11.1101C33.5599 11.1851 34.4649 11.4651 35.0649 11.7001C35.8599 12.0101 36.4299 12.3801 37.0249 12.9751C37.6199 13.5701 37.9899 14.1401 38.2999 14.9351C38.5349 15.5351 38.8099 16.4401 38.8899 18.1051C38.9699 19.9051 38.9899 20.4451 38.9899 25.0001C38.9899 29.5551 38.9749 30.0951 38.8899 31.8951C38.8149 33.5601 38.5349 34.4651 38.2999 35.0651C37.9899 35.8601 37.6199 36.4301 37.0249 37.0251C36.4299 37.6201 35.8599 37.9901 35.0649 38.3001C34.4649 38.5351 33.5599 38.8101 31.8949 38.8901C30.0949 38.9701 29.5549 38.9901 24.9999 38.9901C20.4449 38.9901 19.9049 38.9751 18.1049 38.8901C16.4399 38.8151 15.5349 38.5351 14.9349 38.3001C14.1399 37.9901 13.5699 37.6201 12.9749 37.0251C12.3799 36.4301 12.0099 35.8601 11.6999 35.0651C11.4649 34.4651 11.1899 33.5601 11.1099 31.8951C11.0299 30.0951 11.0099 29.5551 11.0099 25.0001C11.0099 20.4451 11.0249 19.9051 11.1099 18.1051C11.1849 16.4401 11.4649 15.5351 11.6999 14.9351C12.0099 14.1401 12.3799 13.5701 12.9749 12.9751C13.5699 12.3801 14.1399 12.0101 14.9349 11.7001C15.5349 11.4651 16.4399 11.1901 18.1049 11.1101C19.9049 11.0251 20.4449 11.0101 24.9999 11.0101ZM24.9999 7.93506C20.3649 7.93506 19.7849 7.95506 17.9649 8.04006C16.1499 8.12506 14.9099 8.41006 13.8199 8.83506C12.6999 9.26506 11.7449 9.85006 10.7999 10.8001C9.84993 11.7501 9.26993 12.7001 8.82993 13.8251C8.40993 14.9101 8.11993 16.1501 8.03493 17.9701C7.94993 19.7901 7.92993 20.3701 7.92993 25.0051C7.92993 29.6401 7.94993 30.2201 8.03493 32.0401C8.11993 33.8551 8.40493 35.0951 8.82993 36.1851C9.26493 37.3001 9.84993 38.2551 10.7999 39.2001C11.7499 40.1501 12.6999 40.7301 13.8249 41.1701C14.9099 41.5901 16.1499 41.8801 17.9699 41.9651C19.7899 42.0501 20.3699 42.0701 25.0049 42.0701C29.6399 42.0701 30.2199 42.0501 32.0399 41.9651C33.8549 41.8801 35.0949 41.5951 36.1849 41.1701C37.2999 40.7351 38.2549 40.1501 39.1999 39.2001C40.1499 38.2501 40.7299 37.3001 41.1699 36.1751C41.5899 35.0901 41.8799 33.8501 41.9649 32.0301C42.0499 30.2101 42.0699 29.6301 42.0699 24.9951C42.0699 20.3601 42.0499 19.7801 41.9649 17.9601C41.8799 16.1451 41.5949 14.9051 41.1699 13.8151C40.7349 12.7001 40.1499 11.7451 39.1999 10.8001C38.2499 9.85006 37.2999 9.27006 36.1749 8.83006C35.0899 8.41006 33.8499 8.12006 32.0299 8.03506C30.2149 7.95506 29.6349 7.93506 24.9999 7.93506Z" fill="white"/>
<path d="M24.9999 16.2351C20.1599 16.2351 16.2349 20.1601 16.2349 25.0001C16.2349 29.8401 20.1599 33.7651 24.9999 33.7651C29.8399 33.7651 33.7649 29.8401 33.7649 25.0001C33.7649 20.1601 29.8399 16.2351 24.9999 16.2351ZM24.9999 30.6901C21.8599 30.6901 19.3099 28.1451 19.3099 25.0001C19.3099 21.8551 21.8599 19.3101 24.9999 19.3101C28.1399 19.3101 30.6899 21.8551 30.6899 25.0001C30.6899 28.1451 28.1399 30.6901 24.9999 30.6901Z" fill="white"/>
<path d="M34.1098 17.9401C35.242 17.9401 36.1598 17.0223 36.1598 15.8901C36.1598 14.7579 35.242 13.8401 34.1098 13.8401C32.9776 13.8401 32.0598 14.7579 32.0598 15.8901C32.0598 17.0223 32.9776 17.9401 34.1098 17.9401Z" fill="white"/>
<defs>
<linearGradient id="paint0_linear" x1="7.32232" y1="42.6777" x2="42.6777" y2="7.32232" gradientUnits="userSpaceOnUse">
<stop stop-color="#FFD521"/>
<stop offset="0.0551048" stop-color="#FFD020"/>
<stop offset="0.1241" stop-color="#FEC01E"/>
<stop offset="0.2004" stop-color="#FCA71B"/>
<stop offset="0.2821" stop-color="#FA8316"/>
<stop offset="0.3681" stop-color="#F85510"/>
<stop offset="0.4563" stop-color="#F51E09"/>
<stop offset="0.5" stop-color="#F30005"/>
<stop offset="0.5035" stop-color="#F20007"/>
<stop offset="0.5966" stop-color="#E1003B"/>
<stop offset="0.6879" stop-color="#D30067"/>
<stop offset="0.7757" stop-color="#C70088"/>
<stop offset="0.8589" stop-color="#BF00A0"/>
<stop offset="0.9357" stop-color="#BB00AF"/>
<stop offset="1" stop-color="#B900B4"/>
</linearGradient>
</defs>
</svg>
