<svg width="40" height="40" viewBox="0 0 40 40" fill="none" xmlns="http://www.w3.org/2000/svg">
<path d="M20 40C31.0457 40 40 31.0457 40 20C40 8.9543 31.0457 0 20 0C8.9543 0 0 8.9543 0 20C0 31.0457 8.9543 40 20 40Z" fill="url(#paint0_linear)"/>
<path d="M32.2597 16.0166C32.1218 15.5923 31.7551 15.2831 31.3137 15.219L24.2223 14.1885L21.0508 7.76258C20.8534 7.36258 20.446 7.10938 20 7.10938C19.554 7.10938 19.1466 7.36258 18.9491 7.76266L15.7777 14.1886L8.68624 15.2191C8.24484 15.2832 7.87804 15.5924 7.74023 16.0166C7.60241 16.4409 7.71741 16.9066 8.03679 17.2179L13.1683 22.2198L11.9569 29.2826C11.8815 29.7222 12.0622 30.1666 12.423 30.4288C12.784 30.6909 13.2623 30.7255 13.6572 30.518L20 27.1834L26.3428 30.518C26.7406 30.727 27.2187 30.689 27.5769 30.4288C27.9378 30.1666 28.1186 29.7223 28.0432 29.2826L26.8318 22.2198L31.9632 17.2179C32.2826 16.9065 32.3975 16.4408 32.2597 16.0166Z" fill="url(#paint1_linear)"/>
<defs>
<linearGradient id="paint0_linear" x1="20" y1="40" x2="20" y2="0" gradientUnits="userSpaceOnUse">
<stop stop-color="#EEAC19"/>
<stop offset="1" stop-color="#FFDE00"/>
</linearGradient>
<linearGradient id="paint1_linear" x1="20" y1="30.6526" x2="20" y2="7.10938" gradientUnits="userSpaceOnUse">
<stop stop-color="#FFE59A"/>
<stop offset="1" stop-color="#FFFFD5"/>
</linearGradient>
</defs>
</svg>
